<svg width="27" height="27" viewBox="0 0 27 27" fill="none" xmlns="http://www.w3.org/2000/svg">
<path d="M0.421875 13.25C0.421875 6.02539 6.27539 0.171875 13.5 0.171875C20.7246 0.171875 26.5781 6.02539 26.5781 13.25C26.5781 20.4746 20.7246 26.3281 13.5 26.3281C6.27539 26.3281 0.421875 20.4746 0.421875 13.25ZM13.5 24.6406C19.7596 24.6406 24.8906 19.5729 24.8906 13.25C24.8906 6.99043 19.8229 1.85938 13.5 1.85938C7.24043 1.85938 2.10938 6.92715 2.10938 13.25C2.10938 19.5096 7.17715 24.6406 13.5 24.6406ZM14.1592 19.7627L20.2289 13.6982C20.4768 13.4504 20.4768 13.0496 20.2289 12.8018L14.1592 6.7373C13.9113 6.48945 13.5105 6.48945 13.2627 6.7373L12.8988 7.10117C12.651 7.34902 12.651 7.76035 12.9094 8.00293L17.4182 12.3535H7.38281C7.03477 12.3535 6.75 12.6383 6.75 12.9863V13.5137C6.75 13.8617 7.03477 14.1465 7.38281 14.1465H17.4182L12.9041 18.4971C12.651 18.7449 12.6457 19.151 12.8936 19.3988L13.2574 19.7627C13.5105 20.0105 13.9113 20.0105 14.1592 19.7627Z" fill="#B26519"/>
</svg>
