<svg width="112" height="112" viewBox="0 0 112 112" fill="none" xmlns="http://www.w3.org/2000/svg">
<path d="M80.7546 38.2308C82.4636 39.9398 82.4636 42.7101 80.7546 44.4182L51.4045 73.7692C49.6956 75.4773 46.9261 75.4773 45.2172 73.7692L31.2454 59.7965C29.5364 58.0884 29.5364 55.3181 31.2454 53.61C32.9535 51.901 35.7238 51.901 37.4319 53.61L48.3104 64.4885L74.5673 38.2308C76.2762 36.5227 79.0465 36.5227 80.7546 38.2308ZM112 56C112 86.954 86.9497 112 56 112C25.046 112 0 86.9497 0 56C0 25.046 25.0503 0 56 0C86.954 0 112 25.0503 112 56ZM103.25 56C103.25 29.8824 82.1141 8.75 56 8.75C29.8824 8.75 8.75 29.8859 8.75 56C8.75 82.1176 29.8859 103.25 56 103.25C82.1176 103.25 103.25 82.1141 103.25 56Z" fill="#89C249"/>
</svg>
