<svg width="126" height="36" viewBox="0 0 126 36" fill="none" xmlns="http://www.w3.org/2000/svg">
<path fill-rule="evenodd" clip-rule="evenodd" d="M2.85275 10.6427V25.2121L9.83429 29.3208V32.6095L0.00668091 26.8472H0V8.83717L12.6436 1.66689L12.6002 1.64183L15.4212 0L18.8869 2.07108V2.17798V7.77156L22.3476 9.80423H22.386V9.82928L25.8701 11.8753V15.1707L22.386 13.1246V25.825L19.5383 27.6306V11.4511L16.0409 9.40003H16.0342V3.67951L15.4479 3.32542L2.85275 10.6427ZM30.3129 8.73695H30.3196V26.8422L15.5548 35.4155V35.4222L11.3943 32.9987V16.6338L9.3232 21.419L7.32895 16.8041V25.648L4.47621 24.0446V11.5329C5.56854 10.9266 6.77444 10.3721 7.63294 9.94286L9.50192 15.3277L11.396 7.77156L14.247 5.9911V31.3668L15.5532 32.1251L27.4652 25.2121V10.3654L20.4837 6.25667V2.96632L30.3129 8.73695Z" fill="white"/>
<path d="M38.646 15.4528V1.04213H43.2157L45.9231 10.8714L48.5938 1.04213H53.1836V15.4545H50.3559L50.3492 4.11033L47.3762 15.4545H44.4416L41.4803 4.10866L41.467 15.4528H38.646ZM69.8308 15.4528H66.5354L65.2343 12.1708H59.1797L57.9304 15.4528H54.6985L60.556 1.04046H63.7812L69.8308 15.4528ZM64.2439 9.73398L62.1477 4.40596L60.1084 9.73398H64.2439ZM70.6508 10.7812L73.6238 10.4973C73.8009 11.451 74.16 12.1441 74.7028 12.5867C75.2523 13.0344 75.9839 13.2565 76.9058 13.2565C77.8846 13.2565 78.6228 13.0611 79.1155 12.6636C79.6083 12.266 79.8605 11.8051 79.8605 11.2756C79.8605 10.9349 79.7536 10.6443 79.5448 10.4037C79.3427 10.1632 78.9769 9.95613 78.4525 9.78576C78.0984 9.66551 77.2917 9.45673 76.029 9.15442C74.4005 8.76358 73.2647 8.28924 72.6067 7.72136C71.678 6.92633 71.2187 5.96094 71.2187 4.81183C71.2187 4.08027 71.4392 3.39214 71.8684 2.74743C72.3044 2.1094 72.929 1.62337 73.7491 1.28932C74.5692 0.948594 75.5479 0.784912 76.7104 0.784912C78.5978 0.784912 80.0175 1.18243 80.9712 1.98413C81.9249 2.78584 82.4226 3.85312 82.4744 5.19097L79.4195 5.29118C79.2876 4.54626 79.0087 4.01012 78.5861 3.68777C78.1635 3.35873 77.5188 3.19505 76.6737 3.19505C75.7968 3.19505 75.1087 3.37209 74.6093 3.7195C74.2936 3.94665 74.1299 4.24395 74.1299 4.62142C74.1299 4.96215 74.2819 5.25277 74.5842 5.49328C74.9634 5.80895 75.897 6.13131 77.3752 6.46535C78.8517 6.79439 79.944 7.1468 80.6522 7.50089C81.3653 7.85999 81.9148 8.34603 82.319 8.96568C82.7166 9.58366 82.9187 10.3536 82.9187 11.2639C82.9187 12.084 82.6781 12.8606 82.1988 13.5805C81.7194 14.3004 81.038 14.8365 80.1594 15.1906C79.2826 15.538 78.1902 15.7151 76.8774 15.7151C74.9717 15.7151 73.5069 15.2992 72.4831 14.4524C71.4592 13.6106 70.8529 12.3913 70.6508 10.7812ZM88.9014 15.4528V3.47732H84.4319V1.04213H96.4007V3.47899H91.9562V15.4545H88.9014V15.4528ZM98.3766 15.4528V1.04213H109.544V3.47899H101.431V6.67914H108.976V9.116H101.431V13.0177H109.839V15.4545H98.3766V15.4528ZM112.435 15.4528V1.04213H118.849C120.459 1.04213 121.633 1.17407 122.364 1.43296C123.096 1.69185 123.684 2.15283 124.12 2.80923C124.562 3.47231 124.783 4.22892 124.783 5.0824C124.783 6.16805 124.449 7.05828 123.786 7.75978C123.123 8.46628 122.132 8.90889 120.813 9.09095C121.469 9.45673 122.012 9.86092 122.435 10.3035C122.864 10.7395 123.438 11.5211 124.165 12.6385L126.002 15.4545H122.359L120.175 12.3028C119.391 11.1854 118.855 10.4839 118.565 10.195C118.274 9.90602 117.972 9.70225 117.649 9.59536C117.32 9.48846 116.809 9.43835 116.109 9.43835H115.491V15.4545H112.435V15.4528ZM115.49 7.14012H117.743C119.201 7.14012 120.11 7.08334 120.477 6.96308C120.844 6.84282 121.127 6.64073 121.329 6.35011C121.538 6.06617 121.638 5.70039 121.638 5.27114C121.638 4.7851 121.506 4.39427 121.234 4.09029C120.961 3.79299 120.577 3.60425 120.085 3.52909C119.839 3.49736 119.099 3.47899 117.863 3.47899H115.49V7.14012ZM43.513 35.1615V22.4477H38.5391V20.7558H50.4895V22.4477H45.5156V35.1615H43.513ZM49.3337 35.1615L55.1227 20.7558H57.3124L63.4538 35.1615H61.1873L59.4386 30.7939H53.0884L51.4466 35.1615H49.3337ZM53.6763 29.2472H58.8156L57.2439 25.2521C56.7713 24.0395 56.4105 23.0357 56.1583 22.2473C55.9562 23.1877 55.6789 24.1096 55.3315 25.0182L53.6763 29.2472ZM64.4326 28.1482C64.4326 25.7615 65.1023 23.8942 66.4469 22.543C67.7914 21.1851 69.5268 20.517 71.6546 20.517C73.0493 20.517 74.3053 20.8326 75.4227 21.4707C76.5401 22.102 77.3919 22.9856 77.9798 24.1213C78.566 25.2571 78.8633 26.5448 78.8633 27.9846C78.8633 29.4427 78.5544 30.7488 77.9347 31.8979C77.3167 33.0537 76.4449 33.9239 75.3141 34.5185C74.1784 35.1114 72.9524 35.402 71.6463 35.402C70.2199 35.402 68.9572 35.073 67.8332 34.4233C66.7158 33.7669 65.8707 32.8766 65.2894 31.7409C64.7165 30.6101 64.4326 29.4176 64.4326 28.1482ZM66.497 28.1866C66.497 29.917 66.983 31.2866 67.9618 32.277C68.9338 33.2742 70.1581 33.7736 71.6363 33.7736C73.1395 33.7736 74.3704 33.2742 75.3475 32.2653C76.3129 31.2615 76.7989 29.8285 76.7989 27.9795C76.7989 26.8121 76.5902 25.7899 76.1743 24.918C75.7634 24.0462 75.1571 23.3647 74.3554 22.8853C73.5537 22.406 72.6635 22.1655 71.6663 22.1655C70.2517 22.1655 69.0407 22.6265 68.0236 23.5534C67.0031 24.4804 66.497 26.0204 66.497 28.1866Z" fill="white"/>
<rect x="83.6797" y="20.3767" width="42.2567" height="15.032" fill="#89C249"/>
<path d="M90.1701 31.5564C89.0769 31.5564 88.1658 31.2083 87.437 30.5122C86.7082 29.8088 86.3438 28.906 86.3438 27.8038C86.3438 26.7016 86.7082 25.8025 87.437 25.1063C88.1658 24.403 89.0769 24.0513 90.1701 24.0513C91.4383 24.0513 92.415 24.5951 93.1001 25.6828L92.0068 26.2376C91.8246 25.9257 91.5659 25.6719 91.2306 25.4762C90.9026 25.2804 90.5491 25.1825 90.1701 25.1825C89.4486 25.1825 88.8473 25.429 88.3663 25.9221C87.8925 26.4152 87.6557 27.0424 87.6557 27.8038C87.6557 28.5652 87.8925 29.1925 88.3663 29.6856C88.8473 30.1787 89.4486 30.4252 90.1701 30.4252C90.5564 30.4252 90.9136 30.3273 91.2415 30.1315C91.5695 29.9357 91.8246 29.6819 92.0068 29.3701L93.1001 29.9249C92.4004 31.0126 91.4237 31.5564 90.1701 31.5564Z" fill="white"/>
<path d="M100.63 31.4259H99.1759L98.6402 30.0336H95.2949L94.7592 31.4259H93.3051L96.1695 24.1709H97.7656L100.63 31.4259ZM98.2795 28.9133L96.9676 25.4544L95.6556 28.9133H98.2795Z" fill="white"/>
<path d="M107.068 31.4259H105.592L103.974 28.7175H102.706V31.4259H101.426V24.1709H104.63C105.344 24.1709 105.92 24.3812 106.357 24.8018C106.794 25.2224 107.013 25.7698 107.013 26.4442C107.013 27.0533 106.845 27.5428 106.51 27.9126C106.175 28.2752 105.767 28.4963 105.286 28.5761L107.068 31.4259ZM104.455 27.5972C104.819 27.5972 105.118 27.492 105.351 27.2817C105.584 27.0715 105.701 26.7923 105.701 26.4442C105.701 26.0961 105.584 25.817 105.351 25.6067C105.118 25.3964 104.819 25.2912 104.455 25.2912H102.706V27.5972H104.455Z" fill="white"/>
<path d="M111.79 31.5673C110.711 31.5673 109.804 31.2192 109.068 30.5231C108.331 29.827 107.963 28.9205 107.963 27.8038C107.963 26.6871 108.331 25.7843 109.068 25.0955C109.804 24.3993 110.711 24.0513 111.79 24.0513C113.043 24.0513 114.024 24.5552 114.731 25.5632L113.681 26.1505C113.477 25.8677 113.207 25.6357 112.872 25.4544C112.544 25.2731 112.183 25.1825 111.79 25.1825C111.068 25.1825 110.467 25.429 109.986 25.9221C109.512 26.4152 109.275 27.0424 109.275 27.8038C109.275 28.5652 109.512 29.1961 109.986 29.6964C110.467 30.1895 111.068 30.4361 111.79 30.4361C112.132 30.4361 112.457 30.3708 112.763 30.2403C113.076 30.1098 113.328 29.9575 113.517 29.7835V28.6522H111.341V27.5319H114.796V30.2512C114.002 31.1286 113 31.5673 111.79 31.5673Z" fill="white"/>
<path d="M122.206 30.5013C121.507 31.2047 120.614 31.5564 119.528 31.5564C118.442 31.5564 117.549 31.2047 116.849 30.5013C116.15 29.7907 115.8 28.8915 115.8 27.8038C115.8 26.7161 116.15 25.8206 116.849 25.1172C117.549 24.4066 118.442 24.0513 119.528 24.0513C120.614 24.0513 121.507 24.4066 122.206 25.1172C122.906 25.8206 123.256 26.7161 123.256 27.8038C123.256 28.8915 122.906 29.7907 122.206 30.5013ZM119.528 30.4252C120.249 30.4252 120.832 30.1787 121.277 29.6856C121.722 29.1852 121.944 28.558 121.944 27.8038C121.944 27.0424 121.722 26.4152 121.277 25.9221C120.832 25.429 120.249 25.1825 119.528 25.1825C118.799 25.1825 118.212 25.429 117.768 25.9221C117.33 26.4152 117.112 27.0424 117.112 27.8038C117.112 28.5652 117.33 29.1925 117.768 29.6856C118.212 30.1787 118.799 30.4252 119.528 30.4252Z" fill="white"/>
</svg>
